<svg viewBox="0 0 176 49" fill="none" xmlns="http://www.w3.org/2000/svg">
  <g clip-path="url(#clip0_152_1194)">
    <path
      d="M46.2877 9.57033C39.0916 9.52439 33.1914 15.481 33.1914 22.7238V37.5616C33.1914 38.0669 33.603 38.4956 34.1214 38.4956H39.7015C40.2046 38.4956 40.6315 38.0822 40.6315 37.5616V22.6931C40.6315 19.6 43.1013 17.0428 46.181 17.0428C49.2607 17.0275 51.7763 19.5388 51.7763 22.6472V37.5616C51.7763 38.0669 52.1879 38.4956 52.7063 38.4956H58.2863C58.7895 38.4956 59.2164 38.0822 59.2164 37.5616V22.6472C59.2164 15.4503 53.4381 9.60096 46.2877 9.57033Z"
      fill="white" />
    <path
      d="M14.8496 39.4144C6.64726 39.4144 0 32.7228 0 24.4847C0 16.2466 6.64726 9.57031 14.8496 9.57031C23.052 9.57031 29.6992 16.2466 29.6992 24.4847C29.6992 32.7228 23.052 39.4144 14.8496 39.4144ZM22.2897 24.4847C22.2897 20.3503 18.966 17.0122 14.8496 17.0122C10.7332 17.0122 7.40956 20.3503 7.40956 24.4847C7.40956 28.6191 10.7332 31.9572 14.8496 31.9572C18.966 31.9572 22.2897 28.6191 22.2897 24.4847Z"
      fill="white" />
    <path
      d="M110.03 18.3902C110.305 18.8037 110.853 18.9262 111.265 18.6812L113.735 17.2418L116.113 15.8637C116.601 15.5881 116.723 14.9296 116.388 14.4856C113.887 11.1781 110.228 9.55493 105.38 9.55493C102.041 9.55493 99.2513 10.3359 96.9491 11.9896C94.7232 13.5668 93.6102 15.7871 93.6102 18.5434C93.6102 21.1465 94.7994 23.1831 97.0711 24.699C98.0011 25.3268 99.114 25.8321 100.41 26.2762C101.34 26.5518 102.514 26.904 103.947 27.2409C107.728 28.0831 109.588 29.1702 109.588 30.3493C109.588 31.9877 108.155 32.784 105.319 32.784C102.605 32.784 100.639 31.8193 99.5714 29.8134C99.3275 29.3387 98.7329 29.1856 98.2755 29.4459L95.7752 30.9006L93.2138 32.3859C92.7565 32.6462 92.604 33.2434 92.8937 33.7027C95.3025 37.5002 99.4495 39.399 105.304 39.399C108.841 39.399 111.753 38.6181 114.147 37.0715C116.571 35.4943 117.729 33.2281 117.729 30.334C117.806 27.6237 116.616 25.4646 114.269 23.9487C112.592 22.8768 110.305 22.0193 107.393 21.4681C103.612 20.6259 101.752 19.5387 101.752 18.3596C101.752 16.8437 102.941 16.0321 105.334 16.0321C107.362 16.0627 109.024 16.8437 110.03 18.3902Z"
      fill="white" />
    <path
      d="M81.9638 11.4231V26.2915C81.9638 29.3846 79.4939 31.9418 76.4142 31.9418C73.3346 31.9571 70.819 29.4459 70.819 26.3375V11.4231C70.819 10.9178 70.4073 10.489 69.889 10.489H64.3089C63.8058 10.489 63.3789 10.9025 63.3789 11.4231V26.2609C63.3789 33.4884 69.2639 39.445 76.4752 39.4143C83.6104 39.3684 89.4039 33.5343 89.4039 26.3528V11.4231C89.4039 10.9178 88.9922 10.489 88.4738 10.489H82.8938C82.3754 10.489 81.9638 10.9178 81.9638 11.4231Z"
      fill="white" />
    <path
      d="M139.273 15.3125C139.989 15.7106 140.873 15.5728 141.438 14.9756C143.984 12.2347 147.627 10.5044 151.637 10.5044C155.677 10.5044 159.306 12.2194 161.837 14.9756C162.386 15.5728 163.285 15.7106 164.002 15.3125L170.146 11.7447C171.076 11.2088 171.32 9.98375 170.634 9.14156C166.167 3.5525 159.321 0 151.637 0C143.953 0 137.108 3.56781 132.641 9.12625C131.985 9.96844 132.229 11.1934 133.129 11.7294L139.273 15.3125Z"
      fill="white" />
    <path
      d="M164.948 20.3655C165.39 21.7896 165.588 23.3055 165.558 24.8827C165.375 32.1868 159.444 38.2046 152.172 38.4955C144.229 38.7865 137.703 32.4318 137.703 24.5152C137.703 23.0758 137.917 21.6977 138.313 20.3808C138.557 19.5999 138.222 18.7577 137.536 18.3443L131.391 14.7765C130.461 14.2558 129.287 14.654 128.906 15.634C127.763 18.5893 127.184 21.8049 127.275 25.2043C127.61 38.1587 138.145 48.6937 151.044 48.9999C164.765 49.3215 176.001 38.2199 176.001 24.5152C176.001 21.3915 175.407 18.3902 174.355 15.6493C173.974 14.654 172.784 14.2558 171.87 14.7918L165.725 18.3596C165.024 18.7271 164.704 19.5846 164.948 20.3655Z"
      fill="white" />
  </g>
  <defs>
    <clipPath id="clip0_152_1194">
      <rect width="176" height="49" fill="white" />
    </clipPath>
  </defs>
</svg>